<?xml version="1.0" encoding="UTF-8" standalone="no"?>
<!-- Uploaded to: SVGRepo, www.svgrepo.com, Transformed by: SVGRepo Tools -->

<svg
   fill="#000000"
   height="19.999996"
   width="20"
   version="1.1"
   id="Layer_1"
   viewBox="0 0 12.8 12.799998"
   xml:space="preserve"
   sodipodi:docname="icon_wallet.svg"
   inkscape:version="1.2.1 (9c6d41e410, 2022-07-14)"
   xmlns:inkscape="http://www.inkscape.org/namespaces/inkscape"
   xmlns:sodipodi="http://sodipodi.sourceforge.net/DTD/sodipodi-0.dtd"
   xmlns="http://www.w3.org/2000/svg"
   xmlns:svg="http://www.w3.org/2000/svg"><defs
   id="defs3171" /><sodipodi:namedview
   id="namedview3169"
   pagecolor="#ffffff"
   bordercolor="#000000"
   borderopacity="0.25"
   inkscape:showpageshadow="2"
   inkscape:pageopacity="0.0"
   inkscape:pagecheckerboard="0"
   inkscape:deskcolor="#d1d1d1"
   showgrid="false"
   inkscape:zoom="1.44625"
   inkscape:cx="400"
   inkscape:cy="400.34572"
   inkscape:window-width="3440"
   inkscape:window-height="1351"
   inkscape:window-x="-9"
   inkscape:window-y="-9"
   inkscape:window-maximized="1"
   inkscape:current-layer="Layer_1" />
<g
   id="g3106"
   transform="matrix(0.025,0,0,0.02500002,0,-1.250001e-5)">
	<g
   id="g3104">
		<path
   d="m 361.739,278.261 c -27.664,0 -50.087,22.423 -50.087,50.087 0,27.664 22.423,50.087 50.087,50.087 H 512 V 278.261 Z m 0,66.782 c -9.22,0 -16.696,-7.475 -16.696,-16.696 0,-9.221 7.475,-16.696 16.696,-16.696 9.221,0 16.696,7.475 16.696,16.696 0,9.221 -7.475,16.696 -16.696,16.696 z"
   id="path3102" />
	</g>
</g>
<g
   id="g3112"
   transform="matrix(0.025,0,0,0.02500002,0,-1.250001e-5)">
	<g
   id="g3110">
		<path
   d="m 361.739,244.87 h 83.478 v -50.087 c 0,-27.619 -22.468,-50.087 -50.087,-50.087 H 16.696 C 7.479,144.696 0,152.174 0,161.391 V 495.304 C 0,504.521 7.479,512 16.696,512 H 395.13 c 27.619,0 50.087,-22.468 50.087,-50.087 v -50.087 h -83.478 c -46.032,0 -83.478,-37.446 -83.478,-83.478 0,-46.032 37.446,-83.478 83.478,-83.478 z"
   id="path3108" />
	</g>
</g>
<g
   id="g3118"
   transform="matrix(0.025,0,0,0.02500002,0,-1.250001e-5)">
	<g
   id="g3116">
		<path
   d="m 461.913,144.696 h -0.158 c 10.529,13.973 16.854,31.282 16.854,50.087 V 244.87 H 512 v -50.087 c 0,-27.619 -22.468,-50.087 -50.087,-50.087 z"
   id="path3114" />
	</g>
</g>
<g
   id="g3124"
   transform="matrix(0.025,0,0,0.02500002,0,-1.250001e-5)">
	<g
   id="g3122">
		<path
   d="m 478.609,411.826 v 50.087 c 0,18.805 -6.323,36.114 -16.854,50.087 h 0.158 C 489.532,512 512,489.532 512,461.913 v -50.087 z"
   id="path3120" />
	</g>
</g>
<g
   id="g3130"
   transform="matrix(0.025,0,0,0.02500002,0,-1.250001e-5)">
	<g
   id="g3128">
		<path
   d="m 273.369,4.892 c -6.521,-6.521 -17.087,-6.521 -23.609,0 l -14.674,14.674 91.74,91.738 h 52.956 z"
   id="path3126" />
	</g>
</g>
<g
   id="g3136"
   transform="matrix(0.025,0,0,0.02500002,0,-1.250001e-5)">
	<g
   id="g3134">
		<path
   d="m 173.195,4.892 c -6.521,-6.522 -17.086,-6.522 -23.608,0 L 43.174,111.304 h 236.435 z"
   id="path3132" />
	</g>
</g>
<g
   id="g3138"
   transform="matrix(0.025,0,0,0.02500002,0,-1.250001e-5)">
</g>
<g
   id="g3140"
   transform="matrix(0.025,0,0,0.02500002,0,-1.250001e-5)">
</g>
<g
   id="g3142"
   transform="matrix(0.025,0,0,0.02500002,0,-1.250001e-5)">
</g>
<g
   id="g3144"
   transform="matrix(0.025,0,0,0.02500002,0,-1.250001e-5)">
</g>
<g
   id="g3146"
   transform="matrix(0.025,0,0,0.02500002,0,-1.250001e-5)">
</g>
<g
   id="g3148"
   transform="matrix(0.025,0,0,0.02500002,0,-1.250001e-5)">
</g>
<g
   id="g3150"
   transform="matrix(0.025,0,0,0.02500002,0,-1.250001e-5)">
</g>
<g
   id="g3152"
   transform="matrix(0.025,0,0,0.02500002,0,-1.250001e-5)">
</g>
<g
   id="g3154"
   transform="matrix(0.025,0,0,0.02500002,0,-1.250001e-5)">
</g>
<g
   id="g3156"
   transform="matrix(0.025,0,0,0.02500002,0,-1.250001e-5)">
</g>
<g
   id="g3158"
   transform="matrix(0.025,0,0,0.02500002,0,-1.250001e-5)">
</g>
<g
   id="g3160"
   transform="matrix(0.025,0,0,0.02500002,0,-1.250001e-5)">
</g>
<g
   id="g3162"
   transform="matrix(0.025,0,0,0.02500002,0,-1.250001e-5)">
</g>
<g
   id="g3164"
   transform="matrix(0.025,0,0,0.02500002,0,-1.250001e-5)">
</g>
<g
   id="g3166"
   transform="matrix(0.025,0,0,0.02500002,0,-1.250001e-5)">
</g>
</svg>
